<!-- icon666.com - MILLIONS vector ICONS FREE --><svg xmlns="http://www.w3.org/2000/svg" viewBox="0 0 48 48"><g id="_7._Roadster_car" data-name="7. Roadster car"><path d="M36.92,29.62A1,1,0,1,0,36.2,31,1,1,0,0,0,36.92,29.62Z"></path><path d="M12.71,29.29a1,1,0,1,0-.33,1.63A1,1,0,0,0,12.71,29.29Z"></path><path d="M25,23H23a1,1,0,0,0,0,2h2A1,1,0,0,0,25,23Z"></path><path d="M43.82,20.46l-8.38-1.4c-3.44-2.95-4.95-4.57-8.19-5.53a1,1,0,0,0-.56,1.92c2.55.76,3.79,2,5.61,3.55H22V17a1,1,0,0,0-2,0v2H13.53l-1.7-2.55c-.39-.6-.44-.45-5.81-.45a5,5,0,0,0-4.81,3.63C-.22,24.64,0,23.24,0,27a4,4,0,0,0,4,4H7.1a5,5,0,0,0,9.8,0H31.1a5,5,0,0,0,9.8,0H44a4,4,0,0,0,4-4V25.39A5,5,0,0,0,43.82,20.46Zm1,2.57A3,3,0,0,1,46,25H45A1,1,0,0,1,44.85,23ZM12,33a3,3,0,1,1,3-3A3,3,0,0,1,12,33Zm24,0a3,3,0,1,1,3-3A3,3,0,0,1,36,33Zm8-4H40.9a5,5,0,0,0-9.8,0H16.9a5,5,0,0,0-9.8,0H4a2,2,0,0,1-2-2H3a1,1,0,0,0,0-2H2c0-1.07-.11-.46,1.13-4.82A3,3,0,0,1,6,18h4.44c1.74,2.6,1.84,3,2.54,3,26.15,0,19.37-.42,29.56,1.27a3,3,0,0,0,.31,3.84c1,1,2.1.89,3.13.89A2,2,0,0,1,44,29Z"></path></g></svg>