<!-- icon666.com - MILLIONS vector ICONS FREE --><svg id="outline" viewBox="0 0 512 512" xmlns="http://www.w3.org/2000/svg"><path d="m507.279 274.124c0-.055.016-.107.016-.162a3.953 3.953 0 0 0 -.144-1.009c-1.187-10.028-3.512-17.026-6.334-22.513a4.073 4.073 0 0 0 -.394-.755 61.452 61.452 0 0 0 -5.7-8.631c-4.254-5.5-11.04-10.226-21.356-14.863-2.611-1.174-10.077-4.522-145.379-3.731v-18.41a13.745 13.745 0 0 0 -27.406-1.506c-.006.055-.011.109-.015.163l-1.367 19.968q-7.761.069-15.991.155l-6.254.06c-27.374.288-57.109.609-76.671.868 21.889-15.005 65.246-44.458 65.686-44.758a8.189 8.189 0 0 0 -4.653-15.046c-13.654.319-116.1 42.054-137.469 53.172-7.559 2.587-14.848 5.148-21.667 7.615-45.916 16.592-73.96 30.369-85.738 42.122a27.694 27.694 0 0 0 -4.849 6.824c-.018.037-.041.071-.057.108-6.444 12.444-7.547 31.6-7.547 43.188 0 5.7 7.143 8.594 12.516 10.271a59.718 59.718 0 0 0 13.974 2.716h44.928a35.231 35.231 0 0 0 61.546 0h236.6a35.237 35.237 0 0 0 61.832-.512c14.867-.934 41.314-3.219 56.532-6.562 8.309-1.827 14.772-8.765 15.37-16.5 1.012-13.396.891-23.863-.009-32.272zm-8.649-4.162h-.7c-9.639 0-16.9-5.228-19.432-8.741a5.562 5.562 0 0 1 -.8-4.015 1.219 1.219 0 0 1 .772-.918c4.817-2.083 12.016-1.506 15.931-.863a55.355 55.355 0 0 1 4.229 14.537zm-190.086-66.615a5.745 5.745 0 0 1 11.446.7v18.461q-6.213.042-12.764.095zm-290.333 74.985c4.253-2.007 14.307-3.769 21.31-2.3a4.4 4.4 0 0 1 3.247 2.768 4.235 4.235 0 0 1 -.5 4.072c-4.76 6.61-19.2 7.953-27.968 7.912a54.774 54.774 0 0 1 3.911-12.452zm87.971 61.715c-15.32 0-27.784-12.944-27.784-28.856s12.464-28.855 27.784-28.855 27.782 12.944 27.782 28.855-12.464 28.856-27.782 28.856zm298.146 0c-15.32 0-27.783-12.944-27.783-28.856s12.463-28.855 27.783-28.855 27.782 12.944 27.782 28.855-12.463 28.856-27.782 28.856zm94.984-34.265c-.327 4.233-4.244 8.231-9.11 9.3-13.524 2.971-36.461 5.095-51.449 6.135a37.732 37.732 0 0 0 1.357-10.027c0-20.322-16.052-36.855-35.782-36.855s-35.783 16.533-35.783 36.855a37.745 37.745 0 0 0 1.565 10.779h-229.71a37.745 37.745 0 0 0 1.564-10.779c0-20.322-16.052-36.855-35.782-36.855s-35.782 16.534-35.782 36.856a37.745 37.745 0 0 0 1.565 10.779h-41.485c-4.243 0-16.281-3.185-18.489-5.509a150.82 150.82 0 0 1 1.026-17.684c.61.013 1.276.022 1.992.022 9.264 0 26.654-1.394 33.75-11.251a12.261 12.261 0 0 0 1.467-11.639 12.432 12.432 0 0 0 -9.06-7.7 44.054 44.054 0 0 0 -13.578-.328c13.354-9.921 39.281-21.871 77.312-35.614 6.864-2.483 14.207-5.063 21.825-7.667a4.279 4.279 0 0 0 .565-.244c23.989-12.6 123.526-52.153 134.206-52.4a.381.381 0 0 1 .112.008.337.337 0 0 1 .08.264.623.623 0 0 1 -.156.121c-.554.377-55.663 37.816-72.995 49.787a5.349 5.349 0 0 0 3.123 9.751c18.476-.276 53.529-.655 85.377-.99l6.255-.06c6.739-.07 13.217-.132 19.482-.185h.17c.029 0 .056-.007.086-.008 141.381-1.218 164.025 1.555 167.06 2.846 8.946 4.021 14.933 8.1 18.3 12.454.231.3.469.61.709.925-4.292-.165-9.442.191-13.806 2.077a9.221 9.221 0 0 0 -5.309 6.133 13.427 13.427 0 0 0 2.016 10.821c3.226 4.481 12.318 12.066 25.924 12.066h1.654a181.6 181.6 0 0 1 -.266 27.816z"></path><path d="m297.256 249.727h-14.01a4 4 0 0 0 0 8h14.01a4 4 0 0 0 0-8z"></path><path d="m106.182 287.293c-12.82 0-23.249 10.721-23.249 23.9s10.429 23.9 23.249 23.9 23.248-10.721 23.248-23.9-10.43-23.9-23.248-23.9zm0 39.8c-8.409 0-15.249-7.132-15.249-15.9s6.84-15.9 15.249-15.9 15.248 7.132 15.248 15.9-6.84 15.897-15.248 15.897z"></path><path d="m404.328 287.293c-12.82 0-23.249 10.721-23.249 23.9s10.429 23.9 23.249 23.9 23.248-10.721 23.248-23.9-10.429-23.9-23.248-23.9zm0 39.8c-8.409 0-15.249-7.132-15.249-15.9s6.84-15.9 15.249-15.9 15.248 7.132 15.248 15.9-6.84 15.897-15.248 15.897z"></path><path d="m321.806 249a4 4 0 0 0 -4.816 2.968l-12.078 50.891a4 4 0 1 0 7.784 1.848l12.078-50.892a4 4 0 0 0 -2.968-4.815z"></path><path d="m176.966 223.537a228.207 228.207 0 0 1 -32.907-3.148 4 4 0 1 0 -1.292 7.894 227.727 227.727 0 0 0 34.121 3.254h.112a4 4 0 0 0 -.036-8z"></path></svg>