<!-- icon666.com - MILLIONS vector ICONS FREE --><svg id="car_icons" enable-background="new 0 0 1000 1000" viewBox="0 0 1000 1000" xmlns="http://www.w3.org/2000/svg"><g><g><g><g><path d="m383.31 368.36c57.01 0 130.23 3.61 153.64 10.29 19.65 5.62 111.46 50.81 132.41 66.26.04.03.08.06.13.09 3.23 2.28 7.38 3.23 10.71 3.99.53.12 1.03.24 1.5.35 4.43 1.28 8.83 2.28 12.56 3.1 2.24.48 9.41 1.48 24.12 3.5 24.8 3.41 62.27 8.56 96.21 14.32 54.12 9.19 65.38 14.29 67.72 16.06 10.18 7.68 17.5 26.6 21.75 56.2 1.04 7.45 1.77 13.86 2.23 19.57 0 .04.01.08.01.13 1.27 13.03-.41 26.26-2.63 28.51-.02.02-.04.03-.06.05-3.38 3.08-10.78 3.11-17.31 3.14-1.54.01-3.13.01-4.65.06-1.9-.03-18.23-.32-44.9-.81-.62-.01-1.02-.33-1.23-.6-.21-.26-.45-.7-.34-1.3.88-4.95 1.33-10.05 1.33-15.15 0-13.9-3.46-27.72-10-39.98-14.87-27.82-43.64-45.11-75.08-45.11-29.85 0-57.88 15.99-73.15 41.72-7.8 13.12-11.93 28.11-11.93 43.36 0 4.01.28 8.03.83 11.94.09.62-.16 1.05-.38 1.31-.22.25-.61.55-1.25.55-112.28-2.27-230.4-4.7-331.99-7.17-.62-.02-1.02-.35-1.2-.54-.19-.21-.42-.57-.39-1.06.1-1.67.15-3.36.15-5.03 0-46.91-38.17-85.08-85.08-85.08s-85.08 38.17-85.08 85.08v.11c0 .66-.32 1.08-.51 1.28-.21.21-.58.47-1.12.47h-.07c-21.2-.76-35.86-1.43-43.55-1.99-7.01-.52-18.22-2.89-22.9-3.93-.21-.06-.38-.12-.52-.18v-34.83c3.68-1.65 6.25-5.37 6.25-9.68 0-2.44 0-4.74.07-7.05 0-.08 0-.15 0-.23 0-7.58 0-7.58.05-11.89l.02-1.92c0-.03 0-.06 0-.09 0-2.22.05-5.49.12-9.27l.03-1.81c.12-3.9.64-14.25 1.09-23.39.37-7.45.72-14.49.82-17.23.23-5.9 4.65-10.77 10.52-11.6.06-.01.13-.02.19-.03.73-.12 1.43-.24 2.07-.29.11-.01.21-.02.32-.03 5.16-.62 11.68-1.2 18.58-1.81 11.13-.98 22.63-2 31.63-3.45 2.08-.33 4.04-1.04 5.84-2.11 3.28-1.95 6.7-3.92 9.91-5.76 41.19-23.53 101.11-52.85 134.38-58.08 11.97-1.87 36.8-2.95 68.13-2.96zm-.01-7.43c-30.09 0-56.16 1-69.3 3.07-38.38 6.03-104.85 40.66-136.91 58.97-3.45 1.98-6.79 3.91-10.02 5.82-.99.59-2.08.98-3.22 1.16-14.37 2.31-36.44 3.59-49.92 5.22-.96.07-1.84.22-2.72.37-9.41 1.32-16.54 9.12-16.91 18.68-.22 6.1-1.69 33.68-1.91 40.73-.07 4.56-.15 8.6-.15 11.25-.07 6.4-.07 5.29-.07 13.9-.07 2.43-.07 4.85-.07 7.28 0 1.76-1.4 3.16-3.09 3.16-.88 0-1.69.29-2.28.88-.51.59-.88 1.32-.88 2.21v38.9c0 4.78 4.49 6.32 6.18 6.76 6.62 1.47 17.21 3.6 24.12 4.12 7.96.57 23.14 1.26 43.83 2 .11 0 .22.01.33.01 5.03 0 9.08-4.12 9.07-9.19 0-.03 0-.06 0-.1 0-42.79 34.85-77.65 77.65-77.65 42.79 0 77.65 34.85 77.65 77.65 0 1.54-.05 3.06-.14 4.58-.31 5.08 3.75 9.36 8.83 9.49 104.47 2.55 228.39 5.08 332.03 7.17h.19c5.49 0 9.73-4.86 8.96-10.33-.5-3.57-.76-7.21-.76-10.91 0-14.41 3.97-27.94 10.88-39.56 13.53-22.79 38.38-38.09 66.76-38.09 29.71 0 55.44 16.69 68.53 41.18 5.81 10.88 9.12 23.31 9.12 36.47 0 4.72-.41 9.35-1.21 13.85-.97 5.48 3.19 10.52 8.76 10.63 28.42.53 45.1.82 45.1.82 8.6-.29 20.29.88 26.91-5.15 6.18-5.51 5.96-25.73 5.07-34.78-.51-6.4-1.32-13.16-2.28-20-3.53-24.56-10.22-50.22-24.63-61.1-17.94-13.6-181.1-33.09-190.95-35.22-4.04-.88-8.16-1.84-12.21-3.01-2.94-.74-7.35-1.47-9.85-3.23-22.13-16.32-115-61.76-134.78-67.43-23.97-6.85-97.41-10.58-155.71-10.58z" fill="rgb(0,0,0)"></path></g></g><g><g><g><path d="m396.49 386.86c1 0 2.01 0 3.03.01l6.26 54.16c-7.13-.43-25.96-1.57-45.94-2.83-5.3-.32-46.82-2.86-60.79-3.48-5.51-8.34-8.7-13.53-13.22-22.47 9.45-5.01 23.7-11.86 39.55-17.06 15.11-4.96 29.06-7.51 41.47-7.57.15 0 .29-.01.44-.02 2.21-.14 4.61-.28 7.15-.36h.07c6.72-.25 14.32-.38 21.98-.38zm0-7.44c-8.15 0-15.7.14-22.26.39-2.65.07-5.15.22-7.43.37-14.34.07-29.41 3.23-43.75 7.94-17.94 5.88-34.7 14.04-47.06 21.03 7.13 14.71 10.44 20.07 18.97 32.87 3.9 0 35.59 1.84 64.41 3.6 25.59 1.62 48.97 3.01 48.97 3.01h.13c3.03 0 5.31-2.62 5.02-5.59l-6.84-59.19c-.29-2.5-2.43-4.41-4.93-4.41-1.75-.01-3.5-.02-5.23-.02z" fill="rgb(0,0,0)"></path></g></g><g><g><path d="m430.6 387.31c5.28.14 10.62.32 16.04.52 32.93 1.27 58.03 3.56 65.54 5.98 22.25 7.05 64.54 36.33 87.16 52.68l-107.66-3.01-54.82-1.49zm-2.77-7.51c-2.96 0-5.31 2.54-4.95 5.52l6.84 59.63c.29 2.43 2.35 4.34 4.85 4.41l56.91 1.54 115.59 3.23h.17c4.8 0 6.84-6.14 2.92-8.97-22.72-16.69-70.66-50.51-95.73-58.45-9.12-2.94-37.06-5.15-67.5-6.32-6.25-.22-12.65-.44-18.97-.59-.04 0-.08 0-.13 0z" fill="rgb(0,0,0)"></path></g></g></g><g><g><path d="m247.02 520.63c30.61 0 55.5 24.9 55.5 55.51 0 3.96-.44 7.95-1.3 11.89-2.62 12.17-9.42 23.24-19.15 31.16-9.85 8.03-22.3 12.45-35.05 12.45-13.27 0-26.1-4.75-36.15-13.38-9.94-8.54-16.56-20.32-18.64-33.12-.48-3.07-.72-6.1-.72-9 0-30.61 24.9-55.51 55.51-55.51zm0-7.44c-34.78 0-62.94 28.16-62.94 62.94 0 3.46.29 6.84.81 10.15 4.85 29.93 30.81 52.79 62.13 52.79 30.15 0 55.37-21.18 61.47-49.48.96-4.34 1.47-8.82 1.47-13.46 0-34.78-28.16-62.94-62.94-62.94z" fill="rgb(0,0,0)"></path></g><g><path d="m247.02 561.07c8.3 0 15.06 6.76 15.06 15.06s-6.76 15.06-15.06 15.06-15.06-6.76-15.06-15.06 6.75-15.06 15.06-15.06zm0-7.44c-12.42 0-22.5 10.07-22.5 22.5 0 12.42 10.07 22.5 22.5 22.5 12.42 0 22.5-10.07 22.5-22.5-.01-12.43-10.08-22.5-22.5-22.5z" fill="rgb(0,0,0)"></path></g></g><g><g><path d="m751.42 520.63c17.79 0 34.61 8.6 45.02 23.05 6.86 9.41 10.49 20.64 10.49 32.46 0 7.25-1.4 14.37-4.15 21.14-8.59 20.88-28.75 34.36-51.36 34.36-23.14 0-44.08-14.58-52.13-36.28-2.24-6.26-3.37-12.72-3.37-19.22 0-12.71 4.19-24.65 12.14-34.58 10.53-13.31 26.33-20.93 43.36-20.93zm0-7.44c-19.93 0-37.72 9.26-49.19 23.75-8.6 10.73-13.75 24.34-13.75 39.19 0 7.65 1.4 15 3.82 21.76 8.9 24.04 31.98 41.18 59.12 41.18 26.32 0 48.82-16.1 58.23-38.97 3.01-7.43 4.71-15.52 4.71-23.97 0-13.82-4.41-26.54-11.91-36.84-11.4-15.81-30-26.1-51.03-26.1z" fill="rgb(0,0,0)"></path></g><g><path d="m751.44 561.07c8.3 0 15.06 6.76 15.06 15.06s-6.76 15.06-15.06 15.06-15.06-6.76-15.06-15.06 6.75-15.06 15.06-15.06zm0-7.44c-12.42 0-22.5 10.07-22.5 22.5 0 12.42 10.07 22.5 22.5 22.5s22.5-10.07 22.5-22.5c-.01-12.43-10.08-22.5-22.5-22.5z" fill="rgb(0,0,0)"></path></g></g><g><g><path d="m847.51 496.18h.07c15.97.02 24.16 5.08 25.25 6.87.62 1.56.68 3.97.22 6.76l-34.89-13.05c3.03-.35 6.19-.58 9.35-.58zm0-7.43c-11.25 0-22.33 2.53-28.94 4.39-2.04.57-2.15 3.43-.17 4.17l57.48 21.5c.26.1.52.14.77.14.91 0 1.76-.57 2.08-1.49 1.27-3.69 3.36-11.49.94-17.32-2.28-5.52-14.29-11.38-32.08-11.4-.02.01-.05.01-.08.01z" fill="rgb(0,0,0)"></path></g></g><g><path d="m143.41 461.78c-5 7.62-13.17 11.1-19.32 12.69l.7-12.27zm8.84-7.64c-.01 0-.03 0-.04 0l-32.85.74c-.9.02-1.63.73-1.68 1.63l-1.42 24.74c-.06 1 .75 1.82 1.73 1.82.06 0 .12 0 .18-.01 6.91-.69 29.58-4.62 35.75-26.71.31-1.11-.52-2.21-1.67-2.21z" fill="rgb(0,0,0)"></path></g></g><g><path d="m460.89 481.81h-25.72c-2.05 0-3.72-1.66-3.72-3.72s1.66-3.72 3.72-3.72h25.72c2.05 0 3.72 1.66 3.72 3.72s-1.66 3.72-3.72 3.72z" fill="rgb(0,0,0)"></path></g></g></svg>