<!-- icon666.com - MILLIONS vector ICONS FREE --><svg viewBox="0 0 128 128" xmlns="http://www.w3.org/2000/svg"><g id="Coupe" fill="rgb(0,0,0)"><path d="m27 72a5 5 0 1 0 5 5 5 5 0 0 0 -5-5zm0 8a3 3 0 1 1 3-3 3 3 0 0 1 -3 3z"></path><path d="m103 72a5 5 0 1 0 5 5 5 5 0 0 0 -5-5zm0 8a3 3 0 1 1 3-3 3 3 0 0 1 -3 3z"></path><path d="m54 63h-4a1 1 0 0 0 0 2h4a1 1 0 0 0 0-2z"></path><path d="m127 63.38a7.12 7.12 0 0 0 -6-5.34l-30.18-3.59-15.82-12.45a9.18 9.18 0 0 0 -5.65-2c-30.36 0-29.26-.39-32 1.17l-16.35 9.15-14.62 1.48a7.08 7.08 0 0 0 -6.38 7.06v16.08a1 1 0 0 0 .87 1l15.17 2a11 11 0 0 0 21.96.06c1.13.06 54 0 54.1 0a11 11 0 0 0 21.9 0h13a1 1 0 0 0 1-1c0-11.37.32-8.06-1-13.62zm-1.71 1.62.49 2h-2.78a1 1 0 0 1 -.69-1.71c.37-.39.6-.29 2.98-.29zm-56-23a7.13 7.13 0 0 1 4.41 1.53l15.14 11.91-4.68 1.56h-37.16l3.75-15zm-25.47.3c.28-.42-.72-.3 4.81-.3l-3.73 15c-1.55 0 .18.26-9.72-1.72zm-41.82 20.7h5a1 1 0 0 1 1 1v2h-6zm25 23a9 9 0 1 1 9-9 9 9 0 0 1 -9 9zm76 0a9 9 0 1 1 9-9 9 9 0 0 1 -9 9zm23-10h-12a11 11 0 0 0 -21.9 0c-.1 0-53.1 0-54.1 0a11 11 0 0 0 -21.89-.14l-14.11-1.8v-6.06h7a1 1 0 0 0 1-1v-3a3 3 0 0 0 -3-3h-5v-2.14a5.09 5.09 0 0 1 4.58-5.07l14.84-1.5c.33 0-.76.53 16.83-9.37a7.12 7.12 0 0 1 3.38-.92l-9 13.4a1 1 0 0 0 .69 1.6c10.9 2.18 10.21 2 10.36 2h41c6.55-2.19 6.31-2 6.6-2.43l29.38 3.43a5.13 5.13 0 0 1 4 3c-1.56 0-2.77-.19-3.81.87a3 3 0 0 0 2.15 5.13h3z"></path></g></svg>