<!-- icon666.com - MILLIONS vector ICONS FREE --><svg id="Capa_1" enable-background="new 0 0 512 512" viewBox="0 0 512 512" xmlns="http://www.w3.org/2000/svg"><g><g><path d="m324.638 233.018c1.61-3.599.956-7.808-1.671-10.747l-30.58-34.229c-.085-.096-.172-.189-.261-.282-7.662-7.938-17.966-12.565-28.272-12.694-13.2-.165-33.831-.107-53.78-.051-9.166.025-17.987.05-25.474.05-4.324 0-21.122 1.803-55.719 25.004-11.689 7.838-21.913 15.805-28.432 21.108-3.283 2.67-4.529 7.118-3.112 11.105s5.191 6.651 9.423 6.651h208.75c3.942 0 7.516-2.317 9.128-5.915zm-184.618-16.339c31.206-20.928 44.523-21.611 44.58-21.615 7.333 0 15.946-.023 24.909-.049v23.918h-72.805c1.09-.751 2.196-1.504 3.316-2.254zm89.489 2.254v-23.966c13.102-.022 25.304-.013 34.096.096 4.877.062 10.101 2.473 14.007 6.459l15.555 17.411z"></path><path d="m511.971 254.183c-.585-14.05-10.746-26.04-24.425-29.118-10.177-2.478-19.898-3.435-20.316-3.476-.033-.003-76.218-9.218-98.508-11.495-4.656-.47-8.944-2.658-12.075-6.163l-34.829-38.99c-.056-.062-.112-.124-.17-.185-14.79-15.743-35.673-24.93-57.298-25.202-19.474-.237-56.166-.49-79.751-.49-20.488 0-47.013 10.886-78.838 32.354-18.581 12.534-33.373 24.929-38.76 29.576l-45.445 8.094c-4.771.85-8.247 4.998-8.247 9.845v24.76l-7.804 13.71c-3.573 6.291-5.48 13.585-5.506 20.814v38.466c0 4.536 3.054 8.504 7.438 9.666 1.323.351 31.071 8.124 74.685 10.678 4.26 20.477 22.441 35.91 44.163 35.91 21.438 0 39.418-15.036 43.979-35.113h51.605c5.522 0 10-4.478 10-10s-4.478-10-10-10h-51.588c-4.706-20.692-23.925-35.58-45.074-35.077-20.036.478-37.903 14.781-42.714 34.267-28.81-1.75-51.43-5.915-62.495-8.28v-11.289h15.564c16.305 0 29.72-13.039 29.903-29.067.186-16.147-13.258-29.753-29.408-29.753h-2.75v-11.315l39.934-7.112c1.825-.324 3.525-1.151 4.908-2.386 18.307-16.341 73.117-58.748 106.448-58.748 23.512 0 60.094.253 79.504.488 16.176.204 31.801 7.06 42.887 18.811l34.742 38.893c6.47 7.242 15.343 11.766 24.971 12.736 15.367 1.571 55.613 5.778 85.683 9.743-1.781 7.643-1.282 15.643 1.544 23.178 4.208 11.218 15.208 18.755 27.373 18.755h10.62c-.37 5.215-2.399 10.196-5.838 14.175-1.569 1.816-2.434 4.137-2.434 6.538v8.546c0 1.586-1.186 2.944-2.757 3.16-.088.012-.177.024-.265.039-8.795 1.444-17.717 2.471-26.63 3.066-5.051-20.689-24.702-35.387-45.92-34.42-19.975.911-37.471 15.518-41.913 35.052h-56.306c-5.522 0-10 4.478-10 10s4.478 10 10 10h56.323c4.562 20.077 22.542 35.113 43.979 35.113 21.656 0 39.791-15.342 44.121-35.727 9.861-.624 19.738-1.736 29.469-3.329 11.354-1.628 19.897-11.47 19.897-22.954v-5.09c5.407-7.513 8.349-16.565 8.349-25.885v-8.284-16.144c.004-.449-.006-.896-.025-1.341zm-385.685 98.754c-13.845 0-25.108-11.264-25.108-25.108 0-13.537 11.458-25.105 25.112-25.105 4.759 0 9.213 1.33 13.01 3.639 7.246 4.409 12.095 12.382 12.095 21.467.001 13.843-11.263 25.107-25.109 25.107zm-83.578-91.564c1.811 1.811 2.791 4.216 2.762 6.773-.06 5.127-4.503 9.297-9.905 9.297h-15.54c.165-4.622 1.907-8.604 4.219-12.531l3.581-6.289h8.235c2.513 0 4.876.978 6.648 2.75zm367.456 91.564c-13.846 0-25.109-11.264-25.109-25.108 0-13.662 11.422-25.105 25.105-25.105 13.642 0 25.112 11.5 25.112 25.105 0 13.844-11.263 25.108-25.108 25.108zm62.492-97.047c-1.625-4.334-1.72-8.97-.32-13.295 4.274.686 7.887 1.338 10.614 1.938 5.147 1.261 9.051 5.541 9.051 10.991v6.144h-10.697c-3.876-.001-7.352-2.323-8.648-5.778z"></path><path d="m264 268.033c0-5.522-4.478-10-10-10h-20.479c-5.522 0-10 4.478-10 10s4.478 10 10 10h20.479c5.522 0 10-4.477 10-10z"></path><path d="m274.76 324c-2.094-5.031-8.019-7.497-13.06-5.41-5.034 2.085-7.487 8.031-5.41 13.06 2.081 5.04 8.029 7.488 13.06 5.41 5.051-2.086 7.478-8.019 5.41-13.06z"></path></g></g></svg>