<!-- icon666.com - MILLIONS vector ICONS FREE --><svg viewBox="0 0 64 64" xmlns="http://www.w3.org/2000/svg"><g id="outline"><path d="m47 38a3 3 0 1 0 3 3 3 3 0 0 0 -3-3zm0 4a1 1 0 1 1 1-1 1 1 0 0 1 -1 1z"></path><path d="m17 38a3 3 0 1 0 3 3 3 3 0 0 0 -3-3zm0 4a1 1 0 1 1 1-1 1 1 0 0 1 -1 1z"></path><path d="m16 30h4v2h-4z"></path><path d="m22 30h4v2h-4z"></path><path d="m56.2 28.02-9.76-1.952-10.807-8.842a.984.984 0 0 0 -.469-.212 83.043 83.043 0 0 0 -24.244-.014h-5.92v2h2.919a55.505 55.505 0 0 0 -5.751 7.445 1.006 1.006 0 0 0 -.168.555v6a1 1 0 0 0 .1.447l.9 1.789v1.528l-.895 1.789a1 1 0 0 0 -.105.447v2a1 1 0 0 0 1 1h7.08a6.991 6.991 0 0 0 13.84 0h16.16a6.991 6.991 0 0 0 13.84 0h7.08a1 1 0 0 0 1-1v-6.08a7.221 7.221 0 0 0 -5.8-6.9zm-.4 1.96a5.306 5.306 0 0 1 3.176 2.02h-5.2l-.638-2.552zm-51.8.02h2v1.219l-2 .5zm6.08 10h-6.08v-.764l.618-1.236h6.067a6.937 6.937 0 0 0 -.605 2zm6.92 6a5 5 0 1 1 5-5 5.006 5.006 0 0 1 -5 5zm23.08-6h-16.16a6.937 6.937 0 0 0 -.605-2h17.37a6.937 6.937 0 0 0 -.605 2zm6.92 6a5 5 0 1 1 5-5 5.006 5.006 0 0 1 -5 5zm13-6h-6.08a6.937 6.937 0 0 0 -.605-2h6.685zm0-4h-8.111a6.976 6.976 0 0 0 -9.778 0h-20.222a6.976 6.976 0 0 0 -9.778 0h-7.111v-1a1 1 0 0 0 -.105-.447l-.443-.886 2.79-.7a1 1 0 0 0 .758-.967v-3a1 1 0 0 0 -1-1h-3v-.7c2.618-3.89 6.018-8.095 7-8.3a1 1 0 0 0 .164-.014 82.95 82.95 0 0 1 23.41-.043l10.793 8.831a.992.992 0 0 0 .437.206l5.169 1.034 1.057 4.228a1 1 0 0 0 .97.758h6.9a4.627 4.627 0 0 1 .1.92z"></path><path d="m46 30h2v2h-2z"></path><path d="m42 30h2v2h-2z"></path><path d="m40.625 26.219-4.975-3.979c-1.123-.962-2.827-2.24-4.65-2.24h-16c-3.534 0-4.7 1.75-5.831 3.443l-2 3a1 1 0 0 0 .831 1.557h32a1 1 0 0 0 .625-1.781zm-29.793-1.664c1.068-1.594 1.704-2.555 4.168-2.555h5v4h-10.132zm11.168 1.445v-4h9c.871 0 1.967.575 3.375 1.781l2.774 2.219z"></path></g></svg>