<!-- icon666.com - MILLIONS vector ICONS FREE --><svg viewBox="0 0 48 48" xmlns="http://www.w3.org/2000/svg"><g id="_2._Hatchback_car" data-name="2. Hatchback car"><path d="m48 25.76a7.28 7.28 0 0 0 -3.5-4.63c-1.48-.83-1.79-.75-9-2.06-4.88-4.88-6.28-7.07-10-7.07h-18.76a4 4 0 0 0 -3.47 2c-3.4 6-3.27 8-3.27 14a4 4 0 0 0 4 4h3.1a5 5 0 0 0 9.8 0h14.2a5 5 0 0 0 9.8 0h4.1a3 3 0 0 0 3-3 25.16 25.16 0 0 0 0-3.24zm-4.28-2.76a5 5 0 0 1 1.81 2h-1.53a1 1 0 0 1 -.28-2zm-11.13-4h-8.59v-5c4.22 0 3.76.18 8.59 5zm-17.59 0v-5h7v5zm-3.5 0c-2.57-3.43-2.53-2.67-1-5h2.5v5zm-9.24 2.86h.67a1.07 1.07 0 0 1 0 2.14h-.93a17.07 17.07 0 0 1 .26-2.14zm9.74 12.14a3 3 0 1 1 3-3 3 3 0 0 1 -3 3zm24 0a3 3 0 1 1 3-3 3 3 0 0 1 -3 3zm9-4h-4.1a5 5 0 0 0 -9.8 0h-14.2a5 5 0 0 0 -9.8 0h-3.1a2 2 0 0 1 -2-2v-2h.93c4 0 4.19-6.14-.19-6.14a20.53 20.53 0 0 1 2.26-4.86c.69-1.2 1.83-1 3.13-1a3 3 0 0 0 -.08 3.73c2.27 3.03 2.28 3.27 2.95 3.27 27.83 0 21.68-.4 30.6 1.22a3 3 0 0 0 2.4 4.78h2v2a1 1 0 0 1 -1 1z"/><path d="m36.92 30.62a1 1 0 1 0 -1.75.94 1 1 0 0 0 1.75-.94z"/><path d="m12.71 30.29a1 1 0 1 0 0 1.42 1 1 0 0 0 0-1.42z"/><path d="m27 23h-2a1 1 0 0 0 0 2h2a1 1 0 0 0 0-2z"/><path d="m18 23h-2a1 1 0 0 0 0 2h2a1 1 0 0 0 0-2z"/></g></svg>