<!-- icon666.com - MILLIONS vector ICONS FREE --><svg id="Capa_1" enable-background="new 0 0 512 512" viewBox="0 0 512 512" xmlns="http://www.w3.org/2000/svg"><g><path d="m98.025 329.289c1.919 0 3.839-.732 5.303-2.196l11.336-11.337c2.929-2.929 2.929-7.678 0-10.606-2.929-2.929-7.678-2.929-10.606 0l-11.336 11.337c-2.929 2.929-2.929 7.678 0 10.606 1.465 1.464 3.384 2.196 5.303 2.196z"></path><path d="m416.688 327.093c1.464 1.464 3.384 2.196 5.303 2.196s3.839-.732 5.303-2.196c2.929-2.929 2.929-7.678 0-10.606l-11.336-11.337c-2.929-2.929-7.678-2.929-10.606 0-2.929 2.929-2.929 7.678 0 10.606z"></path><path d="m175.839 292.589c-4.142 0-7.5 3.357-7.5 7.5 0 4.142 3.358 7.5 7.5 7.5h168.338c4.142 0 7.5-3.358 7.5-7.5 0-4.143-3.358-7.5-7.5-7.5z"></path><path d="m511.953 259.006c-1.057-12.777-9.158-23.904-21.377-28.003-15.118-5.072-38.741-12.162-65.427-17.132-3.438-.641-6.504-2.228-8.866-4.588l-47.047-47.047c-8.987-8.987-20.936-13.936-33.645-13.936h-312.059c-12.975-.002-23.532 10.554-23.532 23.531v144.291c0 12.976 10.557 23.532 23.532 23.532h38.833c8.203 14.349 23.649 24.048 41.328 24.048s33.125-9.699 41.328-24.048h229.973c8.203 14.349 23.649 24.048 41.328 24.048 26.236 0 47.581-21.345 47.581-47.581s-21.345-47.581-47.581-47.581-47.581 21.345-47.581 47.581c0 2.914.277 5.762.781 8.532h-219.03c.504-2.771.781-5.619.781-8.532 0-26.236-21.345-47.581-47.581-47.581s-47.581 21.345-47.581 47.581c0 2.914.277 5.762.781 8.532h-33.36c-4.705 0-8.532-3.828-8.532-8.532v-8.532h16.548c4.142 0 7.5-3.358 7.5-7.5 0-4.143-3.358-7.5-7.5-7.5h-16.548v-120.758c0-4.705 3.828-8.532 8.532-8.532h8.532v40.597c0 12.976 10.557 23.532 23.532 23.532h8.014c4.142 0 7.5-3.358 7.5-7.5 0-4.143-3.358-7.5-7.5-7.5h-8.014c-4.705 0-8.532-3.828-8.532-8.532v-40.597h97.226v49.129h-48.617c-4.142 0-7.5 3.357-7.5 7.5 0 4.142 3.358 7.5 7.5 7.5h152.311c12.976 0 23.532-10.557 23.532-23.532v-40.597h17.064v40.597c0 12.976 10.557 23.532 23.532 23.532h105.788c1.46.493 2.958.901 4.501 1.188 25.834 4.812 48.738 11.687 63.403 16.607 3.852 1.292 6.969 3.927 8.929 7.285h-14.282c-4.142 0-7.5 3.358-7.5 7.5 0 4.143 3.358 7.5 7.5 7.5h16.549v25.081h-8.532c-4.142 0-7.5 3.357-7.5 7.5 0 4.142 3.358 7.5 7.5 7.5h8.532v8.532c0 4.705-3.828 8.532-8.532 8.532-4.142 0-7.5 3.358-7.5 7.5s3.358 7.5 7.5 7.5c12.976 0 23.532-10.557 23.532-23.532v-55.236c0-.165-.02-1.55-.047-1.879zm-95.63 24.534c17.965 0 32.581 14.616 32.581 32.581s-14.616 32.581-32.581 32.581-32.581-14.616-32.581-32.581 14.615-32.581 32.581-32.581zm-312.63 0c17.965 0 32.581 14.616 32.581 32.581s-14.616 32.581-32.581 32.581-32.581-14.616-32.581-32.581c.001-17.965 14.617-32.581 32.581-32.581zm152.823-79.644c0 4.704-3.828 8.532-8.532 8.532h-88.693v-49.129h97.226v40.597zm55.597 8.532c-4.705 0-8.532-3.828-8.532-8.532v-40.597h32.011c8.703 0 16.884 3.389 23.038 9.542l39.586 39.587z"></path></g></svg>