<!-- icon666.com - MILLIONS vector ICONS FREE --><svg viewBox="0 0 96 96" xmlns="http://www.w3.org/2000/svg"><g id="Pickup"><path d="m96.05 57.52c-.29-2-.86-6-1.58-11.12a7.52 7.52 0 0 0 -6.28-6.4l-16.71-2.7-9.17-13.77a6.39 6.39 0 0 0 -5.31-2.84h-24.46a5.14 5.14 0 0 0 -5.14 5.13v13.46h-23.15a4.37 4.37 0 0 0 -4.36 4.36v14.2a7.36 7.36 0 0 0 7.33 7.35 11.11 11.11 0 0 0 22.13 0h37.82a11.11 11.11 0 0 0 22.13 0 6.72 6.72 0 0 0 6.75-7.67zm-8.18-15.52a5.44 5.44 0 0 1 3.13 1.57 6.11 6.11 0 0 1 1.64 3.86l-7.1-2.29a1.77 1.77 0 0 1 -1.21-2.14l.39-1.53zm-58.47-16.18a3.14 3.14 0 0 1 3.14-3.13h24.46a4.38 4.38 0 0 1 3.65 1.95l9.41 14.13a1 1 0 0 0 .68.44l12 1.94-.35 1.34a3.79 3.79 0 0 0 2.5 4.56l8 2.59.79 5.58c-8.88 0-8.48 0-8.86 0a11.11 11.11 0 0 0 -16 3h-3.39a.54.54 0 0 0 .07-.13c1.54-3.23 3-3.31 3-5.75 0-13 .08-12.28-.17-12.66l-8.89-13.24a3.92 3.92 0 0 0 -3.28-1.77h-9a2.58 2.58 0 0 0 -2.57 2.57c0 32.19-.08 30.3.16 31h-17.07a11.11 11.11 0 0 0 -16.27-2.79c-.92-.33-.69-.25-9.52-.25v-7.8h24a3.48 3.48 0 0 0 3.51-3.4zm37.77 37.37h-37.82a11 11 0 0 0 -.67-2.93h39.16a11 11 0 0 0 -.67 2.93zm-20.58-5.9v-16.16c.61.21-.61.15 17.91.15a2.63 2.63 0 0 0 1.89-.82c.12.18.08-.71.08 11.92 0 1.52-1.19 1.56-2.77 4.88a1.69 1.69 0 0 1 -1.53 1h-14.61a1 1 0 0 1 -.97-.97zm17.91-18h-17a.92.92 0 0 1 -.92-.92v-11.13a.58.58 0 0 1 .57-.57h9a1.94 1.94 0 0 1 1.62.88l7.23 10.81a.59.59 0 0 1 -.5.92zm-62.61 4.35a2.36 2.36 0 0 1 2.36-2.36h23.15v2.72a1.47 1.47 0 0 1 -1.47 1.47h-24zm0 14.2v-.62h7.75a10.91 10.91 0 0 0 -2.42 6 5.36 5.36 0 0 1 -5.33-5.38zm16.39 15.47a9.11 9.11 0 1 1 8.23-13.05 9.13 9.13 0 0 1 -8.23 13.05zm60 0a9.11 9.11 0 1 1 6.11-15.88 9.13 9.13 0 0 1 -6.16 15.88zm11.02-10.12a11 11 0 0 0 -2.42-6h7.12l.08.58a4.73 4.73 0 0 1 -4.78 5.42z"></path><path d="m34.78 41.28h4.57a2.48 2.48 0 0 0 2.38-2.57v-11.47a2.49 2.49 0 0 0 -2.38-2.57h-4.44a2.63 2.63 0 0 0 -2.52 2.72v11.32a2.48 2.48 0 0 0 2.39 2.57zm-.39-13.89c0-.42.27-.72.52-.72h4.44c.18 0 .38.25.38.57v11.47c0 .33-.2.57-.38.57h-4.57c-.18 0-.39-.24-.39-.57z"></path><path d="m18.28 59.3a4.9 4.9 0 0 0 -4.79 5.86 4.89 4.89 0 1 0 4.79-5.89zm0 7.78a2.89 2.89 0 1 1 2.89-2.89 2.9 2.9 0 0 1 -2.89 2.89z"></path><path d="m82.44 61.72a4.88 4.88 0 1 0 -4.21 7.36 4.86 4.86 0 0 0 4.21-7.36zm-4.21 5.36a2.89 2.89 0 1 1 2.71-3.89 2.9 2.9 0 0 1 -2.71 3.89z"></path><path d="m51.76 43.73h-2a1 1 0 0 0 0 2h2a1 1 0 0 0 0-2z"></path></g></svg>