<!-- icon666.com - MILLIONS vector ICONS FREE --><svg version="1.1" id="Layer_1" xmlns="http://www.w3.org/2000/svg" xmlns:xlink="http://www.w3.org/1999/xlink" x="0px" y="0px" viewBox="0 0 511.991 511.991" style="enable-background:new 0 0 511.991 511.991;" xml:space="preserve"><g><g><g><path d="M503.912,224.312l-82.468-20.617l-61.904-61.913c-2.016-2-4.719-3.125-7.547-3.125H213.331 c-4.765,0-8.953,3.164-10.257,7.75c-0.297,1.023-6.633,23.523-10.117,56.249h-0.148H10.664C4.773,202.656,0,207.437,0,213.327 v106.662c0,5.891,4.773,10.656,10.664,10.656h54.405c4.961,24.328,26.507,42.688,52.265,42.688 c25.75,0,47.304-18.359,52.257-42.688h97.061h0.008c0,0,0.008,0,0.016,0h97.068c4.938,24.328,26.499,42.688,52.248,42.688 c25.75,0,47.312-18.359,52.25-42.688h33.093c5.875,0,10.656-4.766,10.656-10.656v-85.333 C511.99,229.765,508.662,225.499,503.912,224.312z M21.336,223.992h14.742l-10.672,21.335h-4.07V223.992z M117.333,351.989 c-17.648,0-31.999-14.359-31.999-32c0-17.64,14.351-31.999,31.999-31.999c17.641,0,32,14.359,32,31.999 C149.333,337.63,134.974,351.989,117.333,351.989z M255.995,309.333H169.59c-4.953-24.326-26.507-42.678-52.257-42.678 c-25.757,0-47.304,18.352-52.265,42.679H21.335v-42.679h10.664c4.039,0,7.734-2.281,9.539-5.891l18.383-36.773h132.888h9.852 h53.334V309.333z M255.995,202.656h-41.578c2.133-18.882,5.243-34.07,7.235-42.663h34.343V202.656z M277.339,159.993h70.232 l42.671,42.663H277.339V159.993z M415.991,351.989c-17.64,0-31.998-14.359-31.998-32c0-17.64,14.358-31.999,31.998-31.999 c17.641,0,32,14.359,32,31.999C447.991,337.63,433.632,351.989,415.991,351.989z M490.646,309.334h-22.405 c-4.938-24.327-26.5-42.679-52.25-42.679c-25.749,0-47.311,18.352-52.248,42.679h-86.404v-85.342h137.34l33.312,8.328v23.671 c0,5.891,4.781,10.664,10.656,10.664h31.999V309.334z M490.647,245.327h-0.001h-21.311v-7.672l21.312,5.328V245.327z"></path><path d="M109.787,312.458c-4.164,4.156-4.164,10.906,0,15.078s10.921,4.172,15.085,0c4.164-4.172,4.164-10.922,0-15.078 C120.708,308.271,113.951,308.271,109.787,312.458z"></path><path d="M408.461,312.458c-4.188,4.156-4.188,10.906,0,15.078c4.155,4.172,10.905,4.172,15.077,0s4.172-10.922,0-15.078 C419.366,308.271,412.616,308.271,408.461,312.458z"></path><path d="M319.993,234.656H298.65c-5.875,0-10.656,4.781-10.656,10.671c0,5.89,4.781,10.664,10.656,10.664h21.343 c5.891,0,10.656-4.773,10.656-10.664C330.649,239.436,325.884,234.656,319.993,234.656z"></path></g></g></g></svg>