<!-- icon666.com - MILLIONS vector ICONS FREE --><svg xmlns="http://www.w3.org/2000/svg" viewBox="0 0 64 64"><g id="Layer_32" data-name="Layer 32"><path d="M59.188,28.556l-9.6-1.477-3.537-5.306A8.458,8.458,0,0,0,39,18H27a3,3,0,0,0-3,3v2H21.317l1.6-3.594-1.828-.812L17.35,27H4a3,3,0,0,0-3,3v8a3,3,0,0,0,3,3H9.09a5.993,5.993,0,0,0,11.82,0H46.09a5.993,5.993,0,0,0,11.82,0H60a3,3,0,0,0,3-3V33A4.471,4.471,0,0,0,59.188,28.556Zm-.667,3.159,1.853-.37A2.487,2.487,0,0,1,61,33H58.648a.649.649,0,0,1-.127-1.285ZM44.387,22.883,47.132,27H33V20h6A6.461,6.461,0,0,1,44.387,22.883ZM27,20h4v7H26V21A1,1,0,0,1,27,20Zm4,19H26V37h5Zm2-2H46.812a5.966,5.966,0,0,0-.722,2H33ZM20.188,37H24v2H20.91A5.966,5.966,0,0,0,20.188,37ZM26,35V29h5v6ZM20.428,25H24v2H19.539ZM3,30a1,1,0,0,1,1-1H5v3a2,2,0,0,1-2,2Zm6.09,9H4a1,1,0,0,1-1-1V36a4,4,0,0,0,4-4V29H24v6H18.31a5.989,5.989,0,0,0-9.22,4ZM15,44a4,4,0,1,1,4-4A4,4,0,0,1,15,44Zm37,0a4,4,0,1,1,4-4A4,4,0,0,1,52,44Zm8-5H57.91a5.989,5.989,0,0,0-9.22-4H33V29H48.924l8.129,1.251A2.64,2.64,0,0,0,58.648,35H61v3A1,1,0,0,1,60,39Z"></path><rect x="35" y="31" width="4" height="2"></rect><circle cx="15" cy="40" r="2"></circle><circle cx="52" cy="40" r="2"></circle></g></svg>