<svg xmlns:xlink="http://www.w3.org/1999/xlink" width="400" height="100" viewBox="0 0 62 29" fill="none" xmlns="http://www.w3.org/2000/svg"><defs><g id="dd-suv-car">
<path d="M10.1056 5.68301L10.0913 5.64556L10.0717 5.61061C9.93822 5.37286 9.96284 5.24524 10.0072 5.15916C10.0709 5.03544 10.2543 4.85038 10.6933 4.66442C11.5661 4.29471 13.127 4.05612 15.4126 4.05612H15.4139C21.3036 4.05612 27.1933 4.05612 33.0846 4.05457C35.1264 4.25987 36.8332 5.24187 38.4996 6.49814L38.4778 6.5197L38.4711 6.52998C38.1306 6.89741 37.9323 7.46737 37.8118 7.95244C37.7295 8.28368 37.6718 8.62549 37.636 8.93326L11.8213 8.99431L11.8208 8.99431C11.5163 8.99533 11.3125 8.84951 11.2444 8.67049L11.2443 8.67024L10.1056 5.68301Z" fill="#EBEBEB" stroke="#000000" stroke-width="1.08605px" stroke-opacity="0.5"></path>
<path d="M5.91918 8.99503H3.67544C3.91022 7.90912 4.23715 6.59309 4.71707 5.61041H5.09833L5.91918 8.99503Z" fill="#E7EFFF" stroke="#000000" stroke-width="1.08605px" stroke-opacity="0.5"></path>
<path fill-rule="evenodd" clip-rule="evenodd" d="M7.72443 22.4929C4.82102 22.4929 0.536968 19.837 0.35248 19.7219L0.0424805 19.529V15.3827L0.236041 15.1866C0.515798 14.9035 1.09346 14.1551 1.09346 13.6448L1.1479 12.5541C1.18721 11.8011 1.23258 10.9329 1.25677 10.1566C1.2719 9.69292 1.86165 8.90566 2.54668 8.50425C2.84458 7.22224 3.35721 5.46724 3.77911 4.4855L3.93941 4.12299C3.98629 4.01874 4.02107 3.95495 4.03619 3.89739C4.03014 3.87249 4.0135 3.80248 3.99536 3.6889L3.81994 2.54069L4.41121 2.41155C6.93355 1.85923 11.9858 1.52783 15.4124 1.52783H33.1686C36.8478 1.85767 39.0692 3.70757 41.4207 5.66639C42.5049 6.56878 43.6255 7.50229 44.9471 8.34556C45.5278 8.40157 46.3686 8.43424 47.35 8.47314C53.2355 8.7034 58.5659 9.13282 59.1557 11.8213L59.7046 14.8786C60.0555 15.1228 60.5696 15.6098 60.5696 16.3582V20.1996C60.5696 20.7721 60.5016 21.3462 60.0161 21.6745C59.0846 22.2782 57.9943 22.4913 55.8395 22.4913H54.7567V21.1673H55.8395C57.6858 21.1673 58.5962 21.0148 59.2812 20.587C59.2631 20.573 59.2827 20.4532 59.2827 20.1996V16.3582C59.2827 16.1777 58.9773 15.9521 58.8548 15.8945L58.5538 15.7514L57.896 12.0874C57.4802 10.1939 50.6058 9.92474 47.3016 9.79405C46.1992 9.75204 45.2677 9.7147 44.6658 9.64625L44.4012 9.5529C42.951 8.64272 41.7624 7.65321 40.6117 6.69325C38.3207 4.78733 36.3442 3.14125 33.1127 2.84875L15.4124 2.85186C12.3094 2.85186 7.86658 3.12413 5.28224 3.58622C5.35482 4.04831 5.32307 4.20233 5.10531 4.68154L4.9556 5.02227C4.53521 5.99934 3.99233 7.9037 3.73072 9.10948L3.6536 9.46577L3.31941 9.58712C2.94741 9.72404 2.57541 10.2064 2.51492 10.3479C2.51794 10.9843 2.47107 11.8649 2.43175 12.6257L2.37882 13.6759C2.38033 14.6001 1.68472 15.5149 1.32936 15.9225V18.776C2.35463 19.3781 5.6497 21.1875 7.83633 21.1689L9.40448 21.1673V22.4913H7.85448C7.81214 22.4913 7.76829 22.4929 7.72443 22.4929ZM18.6516 22.4913H45.5097V21.1673H18.6516V22.4913Z" fill="#000000" fill-opacity="0.5"></path>
<path fill-rule="evenodd" clip-rule="evenodd" d="M54.439 12.1372L56.2294 15.4396C56.8161 15.0943 57.6796 14.8718 58.3465 14.8718H58.3903L59.0512 14.8765L58.6232 12.4981L54.439 12.1372Z" fill="#000000" fill-opacity="0.5"></path>
<path fill-rule="evenodd" clip-rule="evenodd" d="M29.7964 11.5535H32.7633V10.6715H29.7964V11.5535Z" fill="#000000" fill-opacity="0.5"></path>
<path fill-rule="evenodd" clip-rule="evenodd" d="M18.1479 11.1117H21.1149V10.2297H18.1479V11.1117Z" fill="#000000" fill-opacity="0.5"></path>
<path fill-rule="evenodd" clip-rule="evenodd" d="M1.73926 13.5897H2.30633C3.61438 13.5897 5.34584 12.5724 5.39877 11.4073V10.3355H1.89501C1.85721 11.4633 1.77706 12.7482 1.73926 13.5897Z" fill="#000000" fill-opacity="0.5"></path>
<path fill-rule="evenodd" clip-rule="evenodd" d="M39.3549 7.33268L39.3444 7.34512C38.9844 7.70135 38.7939 9.02668 38.7773 9.53379C38.7712 9.71579 38.8302 9.87446 38.9527 10.0051C39.0752 10.1358 39.2279 10.2027 39.4048 10.2027H40.8263C42.3461 10.2027 40.5677 7.38868 40.0006 7.1849C39.7708 7.10246 39.5303 7.16001 39.3549 7.33268Z" fill="#000000" fill-opacity="0.5"></path>
<path fill-rule="evenodd" clip-rule="evenodd" d="M22.2114 18.205V19.3343H42.372L22.2114 18.205Z" fill="#000000" fill-opacity="0.5"></path>
<path fill-rule="evenodd" clip-rule="evenodd" d="M10.5116 25.2981C9.68446 24.5746 9.07202 23.6007 8.78167 22.4913H7.81689V19.89C7.81689 18.1334 8.51553 16.534 9.6406 15.3764C10.7657 14.2189 12.3202 13.5001 14.029 13.5001C15.7347 13.5001 17.2893 14.2189 18.4144 15.378L18.4159 15.3764C19.5409 16.534 20.2396 18.1319 20.2396 19.89V22.4913H19.2748C18.986 23.6007 18.3705 24.5746 17.5464 25.2981C16.5967 26.1289 15.3673 26.6314 14.029 26.6314C12.6907 26.6314 11.4613 26.1289 10.5116 25.2981ZM50.1326 17.3104C48.1305 17.3104 46.5079 18.9798 46.5079 21.0397C46.5079 23.1012 48.1305 24.7707 50.1326 24.7707C52.1348 24.7707 53.7574 23.1012 53.7574 21.0397C53.7574 18.9798 52.1348 17.3104 50.1326 17.3104ZM14.029 17.3104C12.0268 17.3104 10.4027 18.9798 10.4027 21.0397C10.4027 23.1012 12.0268 24.7707 14.029 24.7707C16.0311 24.7707 17.6537 23.1012 17.6537 21.0397C17.6537 18.9798 16.0311 17.3104 14.029 17.3104ZM50.1326 13.5001C51.8399 13.5001 53.3929 14.2189 54.5195 15.378L54.521 15.3764C55.6461 16.534 56.3447 18.1319 56.3447 19.89V22.4913H55.3784C55.0896 23.6007 54.4757 24.5746 53.65 25.2981C52.7004 26.1289 51.4709 26.6314 50.1326 26.6314C48.7944 26.6314 47.5665 26.1305 46.6168 25.2996L46.6153 25.3012C45.7896 24.5777 45.1757 23.6022 44.8853 22.4913H43.9206V19.89C43.9206 18.1319 44.6192 16.534 45.7443 15.3764C46.8693 14.2189 48.4239 13.5001 50.1326 13.5001Z" fill="#000000" fill-opacity="0.5"></path>
<path fill-rule="evenodd" clip-rule="evenodd" d="M50.1325 19.5897C49.3537 19.5897 48.7231 20.2399 48.7231 21.041C48.7231 21.8421 49.3537 22.4908 50.1325 22.4908C50.9113 22.4908 51.5419 21.8421 51.5419 21.041C51.5419 20.2399 50.9113 19.5897 50.1325 19.5897Z" fill="#000000" fill-opacity="0.5"></path>
<path fill-rule="evenodd" clip-rule="evenodd" d="M14.029 19.5897C13.2502 19.5897 12.6196 20.2399 12.6196 21.041C12.6196 21.8421 13.2502 22.4908 14.029 22.4908C14.8078 22.4908 15.4384 21.8421 15.4384 21.041C15.4384 20.2399 14.8078 19.5897 14.029 19.5897Z" fill="#000000" fill-opacity="0.5"></path>
</g></defs>
<use xlink:href="#dd-suv-car" fill="none"></use>
</svg>