<!-- icon666.com - MILLIONS vector ICONS FREE --><svg id="Layer_4" viewBox="0 0 512 512" xmlns="http://www.w3.org/2000/svg" data-name="Layer 4"><g fill="rgb(0,0,0)"><path d="m487.155 228.422-39.379-78.758a38.976 38.976 0 0 0 -35.053-21.664h-350.723a38.043 38.043 0 0 0 -38 38v148a38.043 38.043 0 0 0 38 38h12.341a55.991 55.991 0 0 0 107.317 0h164.683a55.991 55.991 0 0 0 107.317 0h10.342a24.027 24.027 0 0 0 24-24v-96a8 8 0 0 0 -.845-3.578zm-447.155 59.578h8v8h-8zm88 88a40 40 0 1 1 40-40 40.045 40.045 0 0 1 -40 40zm272 0a40 40 0 1 1 40-40 40.045 40.045 0 0 1 -40 40zm64-40h-8a56 56 0 0 0 -112 0h-160a56 56 0 0 0 -112 0h-10a22.025 22.025 0 0 1 -22-22v-2h16a8 8 0 0 0 8-8v-24a8 8 0 0 0 -8-8h-16v-106a22.025 22.025 0 0 1 22-22h350.723a23.064 23.064 0 0 1 20.742 12.819l38.535 77.07v22.111h-16a8 8 0 0 0 -8 8v24a8 8 0 0 0 8 8h16v32a8.009 8.009 0 0 1 -8 8zm8-64v8h-8v-8z"></path><path d="m451.062 240.041a16.8 16.8 0 0 0 .833-16.379l-25.673-52.362a19.312 19.312 0 0 0 -17.562-11.3h-72.66a8 8 0 0 0 -8 8v72a8 8 0 0 0 8 8h100.721a16.8 16.8 0 0 0 14.341-7.959zm-13.578-8.464a.828.828 0 0 1 -.763.423h-92.721v-56h64.66a3.3 3.3 0 0 1 3.011 1.957q.062.138.127.273l25.729 52.476a.826.826 0 0 1 -.043.871z"></path><path d="m400 308.8a27.2 27.2 0 1 0 27.2 27.2 27.231 27.231 0 0 0 -27.2-27.2zm0 38.4a11.2 11.2 0 1 1 11.2-11.2 11.213 11.213 0 0 1 -11.2 11.2z"></path><path d="m128 308.8a27.2 27.2 0 1 0 27.2 27.2 27.231 27.231 0 0 0 -27.2-27.2zm0 38.4a11.2 11.2 0 1 1 11.2-11.2 11.213 11.213 0 0 1 -11.2 11.2z"></path><path d="m168 160h-104a8 8 0 0 0 -8 8v72a8 8 0 0 0 8 8h104a8 8 0 0 0 8-8v-72a8 8 0 0 0 -8-8zm-8 72h-88v-56h88z"></path><path d="m304 160h-104a8 8 0 0 0 -8 8v72a8 8 0 0 0 8 8h104a8 8 0 0 0 8-8v-72a8 8 0 0 0 -8-8zm-8 72h-88v-56h88z"></path></g></svg>