<!-- icon666.com - MILLIONS vector ICONS FREE --><svg xmlns="http://www.w3.org/2000/svg" viewBox="0 0 96 96"><g id="Wagon"><path d="M96,56.28c-.19-1.56,0-.27-.73-6.15a6.84,6.84,0,0,0-6.16-6L71.88,42.6C61.23,27,66.3,34.44,63.27,30a8.2,8.2,0,0,0-6.79-3.59H15.58a8.72,8.72,0,0,0-7.84,5C2.62,42.11,1.87,43.13,1.47,46.27.13,56.69.43,54.32,0,57.45a3.65,3.65,0,0,0,3.62,4.12h9.93a9,9,0,0,0,17.94,0H74.1a9,9,0,0,0,18-.08A4.73,4.73,0,0,0,96,56.28Zm-49-1.6H35.31a2,2,0,0,1-1.71-1c-2.12-3.35-3.57-3-3.57-4.74V44.52H47ZM13.3,33a3.06,3.06,0,0,1,2.28-1H19c-.42.54-.15.07-5.11,10.5H8.66C13.3,32.74,12.94,33.43,13.3,33Zm7,.73A3.07,3.07,0,0,1,23,32h5v10.5H16.1ZM47,32v10.5H34.22V32Zm13.89,0a2.6,2.6,0,0,1,2,.89l6.54,9.61H53.19V32Zm-9.7,10.5H49V32h2.19Zm-19,0H30V32h2.19Zm16.78,2H69.91l-2.8,8.42a2.55,2.55,0,0,1-2.41,1.74H49Zm-45.55,2c.35-2.7.81-3.21,6.1-14.32a6.69,6.69,0,0,1,6-3.81h40.9A6.16,6.16,0,0,1,60.66,30c-48.33,0-45.2,0-45.8.05a5.05,5.05,0,0,0-3.68,2.52c-.17.28.28-.65-5,10.5a1,1,0,0,0,.9,1.43H28v4.42A3.94,3.94,0,0,0,29.51,52a11.11,11.11,0,0,1,2.39,2.72,4,4,0,0,0,3.41,1.94H64.7A4.52,4.52,0,0,0,69,53.57l3-9L88.9,46.13a4.84,4.84,0,0,1,4.36,4.24l.45,3.81H89.45A9,9,0,0,0,74.1,59.57H31.52a9,9,0,0,0-15.34-5.39H2.46ZM2,57.71l.2-1.53H14.66a8.88,8.88,0,0,0-1.08,3.39H3.65A1.65,1.65,0,0,1,2,57.71ZM22.55,67.6a7,7,0,1,1,7-7A7,7,0,0,1,22.55,67.6Zm60.53,0a7,7,0,1,1,7-7A7,7,0,0,1,83.08,67.6Zm9-8.15A9.06,9.06,0,0,0,91,56.18h3l0,.34A2.7,2.7,0,0,1,92,59.45Z"></path><path d="M22.55,56.49a4.09,4.09,0,1,0,4,5.08A4.09,4.09,0,0,0,22.55,56.49Zm1.84,5.08a2.09,2.09,0,1,1,0-2A2.14,2.14,0,0,1,24.39,61.57Z"></path><path d="M84.25,56.66a4.09,4.09,0,1,0,2.91,3.91A4.09,4.09,0,0,0,84.25,56.66Zm.66,4.91a2.09,2.09,0,0,1-3.67,0,2.14,2.14,0,0,1,0-2,2.1,2.1,0,0,1,3.67,0A2.14,2.14,0,0,1,84.91,61.57Z"></path></g></svg>