<!-- icon666.com - MILLIONS vector ICONS FREE --><svg id="Layer_1" enable-background="new 0 0 491.5 491.5" viewBox="0 0 491.5 491.5" xmlns="http://www.w3.org/2000/svg"><g id="Layer_x0020_1"><g id="_235606360" clip-rule="evenodd" fill-rule="evenodd"><path id="_235607512" d="m59.9 266.1h-20.8c-5.7 0-10.3-4.6-10.3-10.3v-46.2c0-5.7 4.6-10.3 10.3-10.3h20.8c2.6 0 4.7 2.1 4.7 4.7s-2.1 4.7-4.7 4.7h-20.8c-.4 0-.8.4-.8.8v46.2c0 .4.4.8.8.8h20.8c2.6 0 4.7 2.1 4.7 4.7 0 2.8-2.1 4.9-4.7 4.9z"></path><path id="_235607608" d="m348.2 322.7h-151.1c-2.6 0-4.7-2.1-4.7-4.7s2.1-4.7 4.7-4.7h151.1c2.6 0 4.7 2.1 4.7 4.7s-2.1 4.7-4.7 4.7zm85.9.5c-2.9 0-6-.2-9.4-.6-2.6-.3-4.4-2.7-4.1-5.3s2.7-4.4 5.3-4.1c11.3 1.4 19.1.2 23.2-3.6 2.9-2.6 4.3-6.8 4.2-12.6-.2-7.8-.1-15.6 0-23.2 0-3.8 0-7.7 0-11.5 0-39.3-34-44.1-73.3-49.6-8.2-1.1-16.6-2.3-24.8-3.9-.9-.2-1.7-.6-2.4-1.3-9.4-9.1-18.9-20.5-28-31.6-9-10.8-18.3-22.1-27.3-30.8-5.5-5.4-6.3-5.4-15-5.4h-.1-195.6c-1.5 0-2.7.7-3.5 1.9-4.4 7.1-18.6 32.6-18.6 62.4v57.2c0 29 4.8 36.6 6.9 38.5 1.1 1 2.5 2.4 4.1 4 3.2 3.2 7.6 7.5 10.8 9.4h33.6c2.6 0 4.7 2.1 4.7 4.7s-2.1 4.7-4.7 4.7h-34.9c-.7 0-1.4-.2-2-.5-4.7-2.2-10-7.5-14.2-11.7-1.4-1.4-2.8-2.8-3.8-3.7-6.8-6.2-10-21.1-10-45.5v-57.2c0-32.3 15.3-59.8 20-67.4 2.5-4.1 6.7-6.5 11.5-6.5h195.7c10.2 0 13.8.4 21.7 8.1 9.4 9.1 18.9 20.5 28 31.6 8.7 10.5 17.6 21.2 26.3 29.8 7.5 1.4 15.3 2.5 22.9 3.6 20.5 2.9 39.8 5.6 54.9 13.4 17.8 9.2 26.5 24.1 26.5 45.6v11.6c-.1 7.5-.1 15.3 0 23 .2 8.6-2.3 15.3-7.3 19.8-4.9 4.6-11.9 6.7-21.3 6.7z"></path><path id="_235607056" d="m158.5 284.2c-18.6 0-33.8 15.2-33.8 33.8s15.2 33.8 33.8 33.8 33.8-15.2 33.8-33.8c0-18.7-15.1-33.8-33.8-33.8zm0 77c-23.9 0-43.3-19.4-43.3-43.3s19.4-43.3 43.3-43.3 43.3 19.4 43.3 43.3-19.4 43.3-43.3 43.3z"></path><path id="_235607320" d="m386.7 284.2c-18.6 0-33.8 15.2-33.8 33.8s15.2 33.8 33.8 33.8 33.8-15.2 33.8-33.8c0-18.7-15.1-33.8-33.8-33.8zm0 77c-23.9 0-43.3-19.4-43.3-43.3s19.4-43.3 43.3-43.3 43.3 19.4 43.3 43.3-19.4 43.3-43.3 43.3z"></path><path id="_235607464" d="m356.1 208.9h-296.2c-2.6 0-4.7-2.1-4.7-4.7s2.1-4.7 4.7-4.7h296.2c2.6 0 4.7 2.1 4.7 4.7 0 2.5-2.1 4.7-4.7 4.7z"></path><path id="_235607296" d="m248.2 296.1c-2.6 0-4.7-2.1-4.7-4.7v-156.4c0-2.6 2.1-4.7 4.7-4.7s4.7 2.1 4.7 4.7v156.4c0 2.6-2.1 4.7-4.7 4.7z"></path><path id="_235607128" d="m188.5 208.9c-2.6 0-4.7-2.1-4.7-4.7v-69.1c0-2.6 2.1-4.7 4.7-4.7s4.7 2.1 4.7 4.7v69.1c0 2.5-2.1 4.7-4.7 4.7z"></path><path id="_235607272" d="m128.8 208.9c-2.6 0-4.7-2.1-4.7-4.7v-69.1c0-2.6 2.1-4.7 4.7-4.7s4.7 2.1 4.7 4.7v69.1c0 2.5-2.1 4.7-4.7 4.7z"></path><path id="_235607104" d="m158.5 305.2c-7 0-12.8 5.7-12.8 12.7s5.7 12.8 12.7 12.8 12.7-5.7 12.7-12.8c.2-7-5.5-12.7-12.6-12.7zm0 35c-12.3 0-22.2-10-22.2-22.2 0-12.3 10-22.2 22.2-22.2 12.3 0 22.2 10 22.2 22.2.1 12.2-9.9 22.2-22.2 22.2z"></path><path id="_235606432" d="m386.7 305.2c-7 0-12.8 5.7-12.8 12.7s5.7 12.8 12.8 12.8c7 0 12.8-5.7 12.8-12.8 0-7-5.7-12.7-12.8-12.7zm0 35c-12.2 0-22.2-10-22.2-22.2 0-12.3 10-22.2 22.2-22.2 12.3 0 22.2 10 22.2 22.2.1 12.2-9.9 22.2-22.2 22.2z"></path><path id="_235606960" d="m455.5 249.8h-33.8c-6.9 0-12.6-5.6-12.6-12.6v-23.5c0-2.6 2.1-4.7 4.7-4.7s4.7 2.1 4.7 4.7v23.5c0 1.7 1.4 3.1 3.1 3.1h33.8c2.6 0 4.7 2.1 4.7 4.7.1 2.7-2 4.8-4.6 4.8z"></path><path id="_235606912" d="m130.7 296.1h-68.1c-2.6 0-4.7-2.1-4.7-4.7s2.1-4.7 4.7-4.7h68.1c2.6 0 4.7 2.1 4.7 4.7s-2.1 4.7-4.7 4.7zm228.2 0h-172.5c-2.6 0-4.7-2.1-4.7-4.7s2.1-4.7 4.7-4.7h172.4c2.6 0 4.7 2.1 4.7 4.7.1 2.6-2 4.7-4.6 4.7zm99 0h-43.3c-2.6 0-4.7-2.1-4.7-4.7s2.1-4.7 4.7-4.7h43.3c2.6 0 4.7 2.1 4.7 4.7s-2.1 4.7-4.7 4.7z"></path><path id="_235606720" d="m279.7 235.9h-13.9c-2.6 0-4.7-2.1-4.7-4.7s2.1-4.7 4.7-4.7h13.9c2.6 0 4.7 2.1 4.7 4.7.1 2.5-2.1 4.7-4.7 4.7z"></path><path id="_235606384" d="m83.7 237.7c-.2 0-.3.1-.3.3v11.5c0 .2.2.3.3.3h19.2c.2 0 .3-.1.3-.3v-11.5c0-.2-.1-.3-.3-.3-.1 0-19.2 0-19.2 0zm19.1 21.6h-19.1c-5.4 0-9.8-4.4-9.8-9.8v-11.5c0-5.4 4.4-9.8 9.8-9.8h19.2c5.4 0 9.8 4.4 9.8 9.8v11.5c-.1 5.4-4.5 9.8-9.9 9.8z"></path></g></g></svg>